<svg xmlns="http://www.w3.org/2000/svg" width="20" height="20" viewBox="0 0 20 20" fill="none">
<path d="M1.66797 1.66675H2.75644C2.96145 1.66675 3.06396 1.66675 3.14645 1.70445C3.21915 1.73767 3.28076 1.7911 3.32393 1.85837C3.37291 1.9347 3.38741 2.03618 3.4164 2.23913L3.81083 5.00008M3.81083 5.00008L4.6874 11.4429C4.79864 12.2605 4.85426 12.6693 5.04972 12.977C5.22195 13.2482 5.46887 13.4638 5.76076 13.5979C6.09202 13.7501 6.50459 13.7501 7.32972 13.7501H14.4613C15.2468 13.7501 15.6395 13.7501 15.9604 13.6088C16.2434 13.4842 16.4862 13.2833 16.6615 13.0286C16.8604 12.7398 16.9339 12.354 17.0809 11.5824L18.1839 5.79149C18.2356 5.51992 18.2615 5.38414 18.224 5.278C18.1911 5.18489 18.1262 5.10649 18.0409 5.05676C17.9437 5.00008 17.8054 5.00008 17.529 5.00008H3.81083ZM8.33464 17.5001C8.33464 17.9603 7.96154 18.3334 7.5013 18.3334C7.04106 18.3334 6.66797 17.9603 6.66797 17.5001C6.66797 17.0398 7.04106 16.6667 7.5013 16.6667C7.96154 16.6667 8.33464 17.0398 8.33464 17.5001ZM15.0013 17.5001C15.0013 17.9603 14.6282 18.3334 14.168 18.3334C13.7077 18.3334 13.3346 17.9603 13.3346 17.5001C13.3346 17.0398 13.7077 16.6667 14.168 16.6667C14.6282 16.6667 15.0013 17.0398 15.0013 17.5001Z" stroke="currentColor" stroke-width="1.5" stroke-linecap="round" stroke-linejoin="round"/>
</svg>
