<svg class="icon icon-instagram" xmlns="http://www.w3.org/2000/svg" width="20" height="20" viewBox="0 0 20 20" fill="none">
<g clip-path="url(#clip0_2373_12935)">
<path d="M10.0006 0.000488281C7.28486 0.000488281 6.94403 0.0123632 5.87738 0.060904C4.81282 0.109653 4.08617 0.278191 3.45035 0.525478C2.79265 0.78089 2.23475 1.12255 1.67893 1.67858C1.12269 2.2344 0.781026 2.79231 0.524781 3.4498C0.276869 4.08583 0.108123 4.81269 0.0602071 5.87683C0.0124997 6.94348 0 7.28451 0 10.0003C0 12.7161 0.0120833 13.0559 0.0604157 14.1225C0.109373 15.1871 0.277911 15.9137 0.52499 16.5495C0.78061 17.2072 1.12227 17.7651 1.6783 18.321C2.23391 18.8772 2.79182 19.2197 3.4491 19.4751C4.08534 19.7224 4.8122 19.8909 5.87655 19.9397C6.9432 19.9882 7.28382 20.0001 9.99939 20.0001C12.7154 20.0001 13.0552 19.9882 14.1218 19.9397C15.1864 19.8909 15.9139 19.7224 16.5501 19.4751C17.2076 19.2197 17.7647 18.8772 18.3203 18.321C18.8765 17.7651 19.2182 17.2072 19.4744 16.5498C19.7202 15.9137 19.889 15.1869 19.939 14.1227C19.9869 13.0561 19.9994 12.7161 19.9994 10.0003C19.9994 7.28451 19.9869 6.94369 19.939 5.87704C19.889 4.81248 19.7202 4.08583 19.4744 3.45C19.2182 2.79231 18.8765 2.2344 18.3203 1.67858C17.764 1.12234 17.2078 0.780682 16.5495 0.525478C15.912 0.278191 15.1849 0.109653 14.1203 0.060904C13.0537 0.0123632 12.7141 0.000488281 9.99751 0.000488281H10.0006ZM9.10357 1.80254C9.36982 1.80212 9.66689 1.80254 10.0006 1.80254C12.6706 1.80254 12.987 1.81212 14.0414 1.86004C15.0164 1.90462 15.5455 2.06753 15.898 2.2044C16.3647 2.38565 16.6974 2.60231 17.0472 2.95231C17.3972 3.3023 17.6138 3.63563 17.7955 4.10228C17.9324 4.45436 18.0955 4.98352 18.1399 5.9585C18.1878 7.01264 18.1982 7.32931 18.1982 9.998C18.1982 12.6667 18.1878 12.9834 18.1399 14.0375C18.0953 15.0125 17.9324 15.5416 17.7955 15.8937C17.6142 16.3604 17.3972 16.6927 17.0472 17.0425C16.6972 17.3924 16.3649 17.6091 15.898 17.7904C15.5459 17.9279 15.0164 18.0903 14.0414 18.1349C12.9872 18.1828 12.6706 18.1933 10.0006 18.1933C7.33048 18.1933 7.01403 18.1828 5.95988 18.1349C4.9849 18.0899 4.45575 17.927 4.10304 17.7901C3.63639 17.6089 3.30306 17.3922 2.95307 17.0422C2.60307 16.6923 2.38641 16.3598 2.20475 15.8929C2.06788 15.5408 1.90475 15.0117 1.86038 14.0367C1.81246 12.9825 1.80288 12.6659 1.80288 9.9955C1.80288 7.32514 1.81246 7.01015 1.86038 5.956C1.90496 4.98102 2.06788 4.45186 2.20475 4.09937C2.38599 3.63271 2.60307 3.29938 2.95307 2.94939C3.30306 2.5994 3.63639 2.38273 4.10304 2.20107C4.45554 2.06357 4.9849 1.90108 5.95988 1.85629C6.88236 1.81462 7.23986 1.80212 9.10357 1.80004V1.80254ZM15.3384 3.46292C14.676 3.46292 14.1385 3.99979 14.1385 4.66248C14.1385 5.32497 14.676 5.86246 15.3384 5.86246C16.0009 5.86246 16.5384 5.32497 16.5384 4.66248C16.5384 3.99999 16.0009 3.4625 15.3384 3.4625V3.46292ZM10.0006 4.86498C7.16465 4.86498 4.86532 7.16431 4.86532 10.0003C4.86532 12.8363 7.16465 15.1346 10.0006 15.1346C12.8366 15.1346 15.1351 12.8363 15.1351 10.0003C15.1351 7.16431 12.8366 4.86498 10.0006 4.86498ZM10.0006 6.66703C11.8414 6.66703 13.3339 8.15929 13.3339 10.0003C13.3339 11.8411 11.8414 13.3336 10.0006 13.3336C8.15963 13.3336 6.66737 11.8411 6.66737 10.0003C6.66737 8.15929 8.15963 6.66703 10.0006 6.66703Z" fill="#3A3A39"/>
</g>
<defs>
<clipPath id="clip0_2373_12935">
<rect width="20" height="19.9994" fill="white" transform="translate(0 0.000488281)"/>
</clipPath>
</defs>
</svg>