<svg class="icon icon-email" xmlns="http://www.w3.org/2000/svg" width="21" height="17" viewBox="0 0 21 17" fill="none">
<path d="M17.2734 0.895996C18.9303 0.895996 20.2734 2.23914 20.2734 3.896V13.896C20.2734 15.5529 18.9303 16.896 17.2734 16.896H3.27344C1.61662 16.896 0.273438 15.5528 0.273438 13.896V3.896C0.273438 2.23917 1.61662 0.896039 3.27344 0.895996H17.2734ZM10.8281 10.728C10.4922 10.9519 10.0546 10.9519 9.71875 10.728L2.27344 5.76416V13.896C2.27344 14.4483 2.72119 14.896 3.27344 14.896H17.2734C17.8257 14.896 18.2734 14.4483 18.2734 13.896V5.76416L10.8281 10.728ZM3.27344 2.896C2.8871 2.89603 2.55225 3.1153 2.38574 3.43604L10.2734 8.69385L18.1602 3.43604C17.9936 3.11553 17.6596 2.896 17.2734 2.896H3.27344Z" fill="#3A3A39"/>
</svg>