<svg class="icon icon-whatsapp" xmlns="http://www.w3.org/2000/svg" width="20" height="20" viewBox="0 0 20 20" fill="none">
<g clip-path="url(#clip0_2373_12933)">
<path d="M16.7768 3.15541C18.6518 5.03041 19.8125 7.48577 19.8125 10.1643C19.8125 15.6108 15.2589 20.0751 9.76786 20.0751C8.11607 20.0751 6.50893 19.6286 5.03571 18.8697L-0.1875 20.209L1.19643 15.0751C0.348214 13.6018 -0.142857 11.9054 -0.142857 10.1197C-0.142857 4.67327 4.32143 0.208984 9.76786 0.208984C12.4464 0.208984 14.9464 1.28041 16.7768 3.15541ZM9.76786 18.3786C14.3214 18.3786 18.1161 14.6733 18.1161 10.1643C18.1161 7.9322 17.1786 5.87863 15.6161 4.31613C14.0536 2.75363 12 1.90541 9.8125 1.90541C5.25893 1.90541 1.55357 5.61077 1.55357 10.1197C1.55357 11.6822 2 13.2001 2.80357 14.5393L3.02679 14.8518L2.17857 17.8876L5.30357 17.0393L5.57143 17.2179C6.86607 17.9768 8.29464 18.3786 9.76786 18.3786ZM14.3214 12.2179C14.5446 12.3518 14.7232 12.3965 14.7679 12.5304C14.8571 12.6197 14.8571 13.1108 14.6339 13.6911C14.4107 14.2715 13.4286 14.8072 12.9821 14.8518C12.1786 14.9858 11.5536 14.9411 9.99107 14.2268C7.49107 13.1554 5.88393 10.6554 5.75 10.5215C5.61607 10.3429 4.76786 9.1822 4.76786 7.9322C4.76786 6.72684 5.39286 6.14648 5.61607 5.87863C5.83929 5.61077 6.10714 5.56613 6.28571 5.56613C6.41964 5.56613 6.59821 5.56613 6.73214 5.56613C6.91071 5.56613 7.08929 5.52148 7.3125 6.01256C7.49107 6.50363 8.02679 7.70898 8.07143 7.84291C8.11607 7.97684 8.16072 8.11077 8.07143 8.28934C7.625 9.22684 7.08929 9.1822 7.35714 9.62863C8.33929 11.2804 9.27679 11.8608 10.75 12.5751C10.9732 12.709 11.1071 12.6643 11.2857 12.5304C11.4196 12.3518 11.9107 11.7715 12.0446 11.5483C12.2232 11.2804 12.4018 11.3251 12.625 11.4143C12.8482 11.5036 14.0536 12.084 14.3214 12.2179Z" fill="#3A3A39"/>
</g>
<defs>
<clipPath id="clip0_2373_12933">
<rect width="20" height="20" fill="white"/>
</clipPath>
</defs>
</svg>