<svg class="icon icon-cart-empty" xmlns="http://www.w3.org/2000/svg" width="20" height="20" viewBox="0 0 20 20" fill="none">
<path d="M13.3341 6.66667C13.3341 7.55072 12.9829 8.39857 12.3578 9.02369C11.7327 9.64881 10.8849 10 10.0008 10C9.11674 10 8.26889 9.64881 7.64377 9.02369C7.01865 8.39857 6.66746 7.55072 6.66746 6.66667M3.02848 6.16782L2.44514 13.1678C2.31983 14.6716 2.25717 15.4235 2.51137 16.0035C2.7347 16.5131 3.12165 16.9336 3.61095 17.1985C4.16786 17.5 4.92235 17.5 6.43133 17.5H13.5703C15.0792 17.5 15.8337 17.5 16.3906 17.1985C16.8799 16.9336 17.2669 16.5131 17.4902 16.0035C17.7444 15.4235 17.6818 14.6716 17.5564 13.1678L16.9731 6.16782C16.8653 4.87396 16.8114 4.22703 16.5249 3.73738C16.2725 3.3062 15.8968 2.9605 15.4462 2.74487C14.9344 2.5 14.2853 2.5 12.9869 2.5L7.01466 2.5C5.71632 2.5 5.06714 2.5 4.55539 2.74487C4.10475 2.9605 3.72904 3.3062 3.47673 3.73738C3.19021 4.22703 3.1363 4.87396 3.02848 6.16782Z" stroke="#1D1D1D" stroke-width="1.5" stroke-linecap="round" stroke-linejoin="round"/>
</svg>