<svg width="20" height="20" viewBox="0 0 20 20" fill="none" xmlns="http://www.w3.org/2000/svg">
<g clip-path="url(#clip0_2459_4812)">
<path d="M1.66406 9.99984H18.3307M1.66406 9.99984C1.66406 14.6022 5.39502 18.3332 9.9974 18.3332M1.66406 9.99984C1.66406 5.39746 5.39502 1.6665 9.9974 1.6665M18.3307 9.99984C18.3307 14.6022 14.5998 18.3332 9.9974 18.3332M18.3307 9.99984C18.3307 5.39746 14.5998 1.6665 9.9974 1.6665M9.9974 1.6665C12.0818 3.94846 13.2664 6.90987 13.3307 9.99984C13.2664 13.0898 12.0818 16.0512 9.9974 18.3332M9.9974 1.6665C7.913 3.94846 6.72844 6.90987 6.66406 9.99984C6.72844 13.0898 7.913 16.0512 9.9974 18.3332" stroke="#1D1D1D" stroke-width="1.5" stroke-linecap="round" stroke-linejoin="round"/>
</g>
<defs>
<clipPath id="clip0_2459_4812">
<rect width="20" height="20" fill="white"/>
</clipPath>
</defs>
</svg>
